<?xml version="1.0" encoding="UTF-8" standalone="no"?>
<!DOCTYPE svg PUBLIC "-//W3C//DTD SVG 1.1//EN" "http://www.w3.org/Graphics/SVG/1.1/DTD/svg11.dtd">
<svg width="100%" height="100%" viewBox="0 0 800 800" version="1.1" xmlns="http://www.w3.org/2000/svg" xmlns:xlink="http://www.w3.org/1999/xlink" xml:space="preserve" xmlns:serif="http://www.serif.com/" style="fill-rule:evenodd;clip-rule:evenodd;stroke-linecap:round;stroke-linejoin:round;stroke-miterlimit:1.5;">
    <g id="body_color" transform="matrix(1.25947,0,0,1.25947,-112.815,-96.8124)">
        <path d="M157.559,417.764L150.95,383.495L163.502,364.296L181.307,351.986L200.098,346.685L209.038,347.754L211.969,333.434L219.941,319.489L229.53,311.997L243.126,306.243L266.996,300.984L283.511,305.342L289.406,308.126L300.03,294.922L325.549,274.879L341.462,272.304L356.852,273.946L378.628,291.274L387.266,283.264L419.146,268.987L445.533,266.993L471.717,275.944L489.657,296.881L495.473,302.794L529.88,292.755L556.467,293.668L578.028,305.642L592.651,334.979L613.825,334.754L633.658,351.839L645.087,382.405L646.039,402.828L647.242,409.724L667.594,425.663L676.651,445.358L680.095,470.04L676.016,493.964L659.881,506.853L648.161,504.955L637.363,534.836L615.413,559.627L583.721,568.474L554.817,558.877L547.992,553.984L522.702,571.746L486.911,581.833L453.735,576.486L433.896,556.526L406.15,581.068L375.717,586.158L344.406,577.257L329.805,566.557L299.978,583.699L267.234,583.962L246.752,570.822L236.833,552.661L215.209,556.526L180,541.556L170.229,515.549L171.709,497.571L150.493,488.746L135.166,474.718L134.134,448.508L145.32,432.438L157.559,417.764Z" style="fill:rgb(101,150,243);stroke:black;stroke-opacity:0;stroke-width:8.27px;"/>
    </g>
    <g id="arms_color" transform="matrix(1.25947,0,0,1.25947,-112.815,-96.8124)">
        <g transform="matrix(1,0,0,1,0.548828,-1.79705)">
            <path d="M274.364,590.082L278.249,608.1L289.892,621.104L310.737,629.495L336.024,633.113L368.363,634.042L374.183,659.604L372.659,691.496L369.43,703.504L308.048,706.291L256.926,690.301L233.675,670.334L220.403,641.246L212.549,595.828L210.811,557.089L235.999,554.466L248.364,575.487L274.364,590.082Z" style="fill:rgb(123,187,243);stroke:black;stroke-opacity:0;stroke-width:8.27px;"/>
        </g>
        <g transform="matrix(1,0,0,1,0.548828,-1.79705)">
            <path d="M579.536,568.836L599.278,568.995L603.193,596.682L597.725,632.762L584.41,655.655L558.387,681.914L517.802,695.456L484.175,704.89L448.809,703.636L445.378,665.069L453.66,633.088L487.886,634.624L515.185,626.144L529.883,613.818L541.508,589.711L545.197,561.248L557.99,561.152L579.536,568.836Z" style="fill:rgb(123,187,243);stroke:black;stroke-opacity:0;stroke-width:8.27px;"/>
        </g>
    </g>
    <g id="body" transform="matrix(1.25947,0,0,1.25947,-112.815,-96.8124)">
        <g transform="matrix(0.990661,-0.136345,0.136345,0.990661,-60.157,56.6549)">
            <path d="M417.93,561.659C417.93,561.659 394.245,597.581 346.091,580.901C311.788,569.019 311.078,541.789 311.839,539.113" style="fill:none;stroke:black;stroke-width:9.92px;"/>
        </g>
        <g transform="matrix(0.998931,-0.0462262,0.0462262,0.998931,-12.401,15.1987)">
            <path d="M531.959,558.86C531.959,558.86 515.22,599.274 455.726,588.713C416.296,581.714 412.344,534.141 412.344,534.141" style="fill:none;stroke:black;stroke-width:9.92px;"/>
        </g>
        <g transform="matrix(0.998931,-0.0462262,0.0462262,0.998931,-12.401,15.1987)">
            <path d="M636.128,524.011C636.128,524.011 628.684,569.636 584.032,578.612C539.381,587.589 525.493,546.879 524.938,539.598" style="fill:none;stroke:black;stroke-width:9.92px;"/>
        </g>
        <g transform="matrix(0.998931,-0.0462262,0.0462262,0.998931,-12.401,15.1987)">
            <path d="M641.344,425.069C641.344,425.069 676.858,436.546 671.333,490.241C666.501,537.2 627.643,521.458 620.456,509.528" style="fill:none;stroke:black;stroke-width:9.92px;"/>
        </g>
        <g transform="matrix(0.998931,-0.0462262,0.0462262,0.998931,-12.401,15.1987)">
            <path d="M591.996,344.861C591.996,344.861 624.028,342.748 636.834,384.99C649.639,427.233 629.738,436.241 629.138,437.616" style="fill:none;stroke:black;stroke-width:9.92px;"/>
        </g>
        <g transform="matrix(0.998931,-0.0462262,0.0462262,0.998931,-15.4673,15.4353)">
            <path d="M386.526,289.886C386.526,289.886 424.137,256.101 468.745,279.025C498.127,294.126 497.57,330.957 497.603,331.14" style="fill:none;stroke:black;stroke-width:9.92px;"/>
        </g>
        <g transform="matrix(0.998931,-0.0462262,0.0462262,0.998931,-11.7983,16.4674)">
            <path d="M491.469,309.343C491.469,309.343 534.77,286.067 565.419,307.999C596.068,329.932 588.391,359.139 588.578,360.87" style="fill:none;stroke:black;stroke-width:9.92px;"/>
        </g>
        <g transform="matrix(-0.998931,0.0462262,-0.0462262,-0.998931,823.055,824.159)">
            <path d="M505.697,544.418C505.697,544.418 490.008,573.676 458.891,573.739C419.993,573.819 410.693,535.305 410.693,535.305" style="fill:none;stroke:black;stroke-width:9.92px;"/>
        </g>
        <g transform="matrix(-0.820309,0.571921,-0.571921,-0.820309,1021.42,450.855)">
            <path d="M606.953,551.071C606.953,551.071 595.872,564.932 572.87,566.083C525.075,568.476 511.653,521.755 511.098,514.474" style="fill:none;stroke:black;stroke-width:9.92px;"/>
        </g>
        <g transform="matrix(-0.976837,0.213984,-0.213984,-0.976837,875.315,776.024)">
            <path d="M626.466,501.973C626.466,501.973 633.669,536.362 610.499,554.015C574.405,581.516 544.657,551.351 542.66,549.705" style="fill:none;stroke:black;stroke-width:9.92px;"/>
        </g>
        <g transform="matrix(-0.272116,0.962264,-0.962264,-0.272116,848.727,35.0242)">
            <path d="M627.598,527.581C627.598,527.581 636.593,566.844 604.161,572.443C565.107,579.186 549.71,546.324 547.714,544.679" style="fill:none;stroke:black;stroke-width:9.92px;"/>
        </g>
        <g transform="matrix(-0.958201,0.286094,-0.286094,-0.958201,890.016,712.432)">
            <path d="M585.462,340.88C585.462,340.88 621.299,335.387 633.446,377.823C641.878,407.284 612.704,423.597 609.291,426.645" style="fill:none;stroke:black;stroke-width:9.92px;"/>
        </g>
        <g transform="matrix(-0.977939,0.20889,-0.20889,-0.977939,872.884,766.42)">
            <path d="M491.469,309.343C491.469,309.343 527.803,284.934 557.812,307.734C586.321,329.393 577.85,358.751 577.323,361.868" style="fill:none;stroke:black;stroke-width:9.92px;"/>
        </g>
    </g>
    <g id="arms" transform="matrix(1.25947,0,0,1.25947,-112.815,-96.8124)">
        <g transform="matrix(1,0,0,1,1.27676,-16.5627)">
            <path d="M599.688,587.078C599.688,587.078 606.509,661.091 563.849,690.649C512.523,726.21 451.308,718.868 449.024,718.902C449.024,718.902 440.437,690.16 452.702,648.997C458.959,647.803 542.2,668.321 544.062,577.929" style="fill:none;stroke:black;stroke-width:9.92px;"/>
        </g>
        <g transform="matrix(-1,0,0,1,819.661,-17.5338)">
            <path d="M607.394,576.142C607.394,576.142 615.359,668.692 572.699,698.25C521.373,733.811 451.308,718.868 449.024,718.902C449.024,718.902 440.437,690.16 452.702,648.997C458.959,647.803 547.274,661.329 545.917,605.38" style="fill:none;stroke:black;stroke-width:9.92px;"/>
        </g>
    </g>
    <g id="eyes" transform="matrix(1.25947,0,0,1.25947,-106.049,-96.396)">
        <g transform="matrix(0.816391,0,0,0.816391,56.7428,87.814)">
            <ellipse cx="339.181" cy="443.803" rx="29.479" ry="36.995" style="fill:rgb(255,222,100);stroke:black;stroke-width:10.13px;"/>
        </g>
        <g transform="matrix(0.816391,0,0,0.816391,193.038,87.814)">
            <ellipse cx="339.181" cy="443.803" rx="29.479" ry="36.995" style="fill:rgb(255,222,100);stroke:black;stroke-width:10.13px;"/>
        </g>
    </g>
    <g id="antenna" transform="matrix(1.25947,0,0,1.25947,-112.815,-96.8124)">
        <g transform="matrix(1,0,0,1,0.548828,-1.79705)">
            <path d="M477.329,279.647C477.329,279.647 496.397,175.151 550.193,155.098" style="fill:none;stroke:black;stroke-width:11.58px;"/>
        </g>
        <g transform="matrix(1,0,0,1,0.548828,-1.79705)">
            <path d="M316.259,277.122C316.259,277.122 307.959,157.344 260.765,123.616" style="fill:none;stroke:black;stroke-width:11.58px;"/>
        </g>
        <g transform="matrix(0.982256,0.682873,-0.814012,1.17089,96.7107,-190.273)">
            <ellipse cx="247.522" cy="110.732" rx="18.277" ry="17.488" style="stroke:black;stroke-opacity:0;stroke-width:8.8px;"/>
        </g>
        <g transform="matrix(1.14636,0.194323,-0.249775,1.47349,310.811,-63.836)">
            <ellipse cx="247.522" cy="110.732" rx="18.277" ry="17.488" style="stroke:black;stroke-opacity:0;stroke-width:8.65px;"/>
        </g>
    </g>
</svg>
