<svg aria-hidden="true" focusable="false" data-prefix="fas" data-icon="brackets" role="img" xmlns="http://www.w3.org/2000/svg" viewBox="0 0 448 512" class="svg-inline--fa fa-brackets fa-w-14 fa-7x"><path fill="#e9ba42" d="M144 32H32A32 32 0 0 0 0 64v384a32 32 0 0 0 32 32h112a16 16 0 0 0 16-16v-32a16 16 0 0 0-16-16H64V96h80a16 16 0 0 0 16-16V48a16 16 0 0 0-16-16zm272 0H304a16 16 0 0 0-16 16v32a16 16 0 0 0 16 16h80v320h-80a16 16 0 0 0-16 16v32a16 16 0 0 0 16 16h112a32 32 0 0 0 32-32V64a32 32 0 0 0-32-32z" class=""></path></svg>